<?xml version="1.0" encoding="utf-8"?>
<!-- Generator: Adobe Illustrator 21.0.2, SVG Export Plug-In . SVG Version: 6.00 Build 0)  -->
<svg version="1.1" id="Layer_1" xmlns="http://www.w3.org/2000/svg" xmlns:xlink="http://www.w3.org/1999/xlink" x="0px" y="0px"
	 viewBox="0 0 150 95" style="enable-background:new 0 0 150 95;" xml:space="preserve">
<style type="text/css">
	.st0{fill:#7B63B0;}
	.st1{fill:#32266B;}
</style>
<g>
	<path d="M68.1,21.1c-0.1-0.1-0.3-0.2-0.4-0.2c0,0,0,0-0.1,0c0,0,0,0,0.1,0C67.9,20.9,68,21,68.1,21.1z"/>
	<rect x="53.9" y="32.1" width="0" height="0"/>
	<path d="M73.9,30.1L73.9,30.1l-3.2-6.3c0,0,0,0,0-0.1c0,0,0,0,0,0.1L73.9,30.1z"/>
	<polygon points="44.8,49.5 37,64.7 44.8,49.5 	"/>
	<rect x="75" y="32.1" width="0" height="0"/>
	<path d="M52.8,30.1L52.8,30.1l-3.2-6.3c0,0,0,0,0-0.1c0,0,0,0,0,0.1L52.8,30.1z"/>
	<path d="M47.5,21.4c-0.1-0.1-0.2-0.2-0.4-0.3c-0.1,0-0.1-0.1-0.2-0.1c0.1,0,0.1,0.1,0.2,0.1C47.3,21.3,47.4,21.4,47.5,21.4z"/>
	<path d="M37,23.8c0.1-0.1,0.2-0.3,0.2-0.4c0-0.1,0.1-0.1,0.1-0.2c0,0.1-0.1,0.1-0.1,0.2C37.2,23.5,37.1,23.6,37,23.8
		C37,23.8,37,23.8,37,23.8L15.9,64.7L37,23.8C37,23.8,37,23.8,37,23.8z"/>
	<path d="M47,21.1c-0.1-0.1-0.3-0.2-0.4-0.2c0,0,0,0-0.1,0c0,0,0,0,0.1,0C46.7,20.9,46.9,21,47,21.1z"/>
	<path d="M48,21.9c-0.1-0.1-0.2-0.2-0.3-0.3c-0.1-0.1-0.1-0.1-0.2-0.2c0.1,0.1,0.1,0.1,0.2,0.2C47.9,21.7,47.9,21.8,48,21.9z"/>
	<path d="M49.5,23.8c-0.1-0.1-0.1-0.3-0.2-0.4c0-0.1-0.1-0.1-0.1-0.2c0,0.1,0.1,0.1,0.1,0.2C49.4,23.5,49.5,23.6,49.5,23.8z"/>
	<path d="M68.7,21.4c-0.1-0.1-0.2-0.2-0.4-0.3c-0.1,0-0.1-0.1-0.2-0.1c0.1,0,0.1,0.1,0.2,0.1C68.5,21.3,68.6,21.4,68.7,21.4z"/>
	<path d="M64.4,20C64.4,20,64.4,20,64.4,20c0.1,0,0.2,0,0.4,0C64.7,20,64.5,20,64.4,20z"/>
	<path d="M85.6,20C85.6,20,85.6,20,85.6,20c0.1,0,0.2,0,0.4,0C85.8,20,85.7,20,85.6,20z"/>
	<polygon points="62.9,49.5 64.4,52.6 62.9,49.5 	"/>
	<path d="M106.7,20C106.7,20,106.7,20,106.7,20c0.1,0,0.2,0,0.4,0C106.9,20,106.8,20,106.7,20z"/>
	<path d="M43.3,20C43.3,20,43.3,20,43.3,20c0.1,0,0.2,0,0.4,0C43.5,20,43.4,20,43.3,20z"/>
	<rect x="96.1" y="32.1" width="0" height="0"/>
	<polygon points="85.6,52.6 87.1,49.5 87.1,49.5 	"/>
	<polygon points="84,49.5 85.6,52.6 84,49.5 	"/>
	<polygon points="64.4,52.6 66,49.5 66,49.5 	"/>
	<path d="M95.1,30.1L95.1,30.1l-3.2-6.3c0,0,0,0,0-0.1c0,0,0,0,0,0.1L95.1,30.1z"/>
	<path d="M134.1,64.7L113,23.8c0,0,0,0,0-0.1c0,0,0,0,0,0.1L134.1,64.7z"/>
	<path d="M109.4,20.5c-0.1,0-0.2-0.1-0.3-0.1c-0.1,0-0.2-0.1-0.3-0.1c0.1,0,0.2,0.1,0.3,0.1C109.2,20.5,109.3,20.5,109.4,20.5z"/>
	<polygon points="113,64.7 105.2,49.5 105.2,49.5 	"/>
	<path class="st0" d="M52.8,30.1l-3.2-6.3c0,0,0,0,0-0.1c-0.1-0.1-0.1-0.3-0.2-0.4c0-0.1-0.1-0.1-0.1-0.2c-0.1-0.1-0.2-0.2-0.3-0.4
		c-0.1-0.1-0.1-0.1-0.2-0.2c-0.1-0.1-0.2-0.2-0.3-0.3c-0.1-0.1-0.1-0.2-0.2-0.2c-0.1-0.1-0.2-0.1-0.2-0.2c-0.1-0.1-0.2-0.2-0.3-0.3
		c-0.1-0.1-0.1-0.1-0.2-0.2c-0.1-0.1-0.2-0.2-0.4-0.3c-0.1,0-0.1-0.1-0.2-0.1c-0.1-0.1-0.3-0.2-0.4-0.2c0,0,0,0-0.1,0
		c-0.1,0-0.1-0.1-0.2-0.1c-0.1-0.1-0.3-0.1-0.4-0.2c-0.1,0-0.2-0.1-0.3-0.1c-0.1,0-0.2-0.1-0.3-0.1c-0.1,0-0.2-0.1-0.3-0.1
		c-0.1,0-0.2-0.1-0.3-0.1c-0.1,0-0.2,0-0.4-0.1c-0.1,0-0.2,0-0.3,0c-0.1,0-0.2,0-0.3,0c-0.1,0-0.2,0-0.4,0c-0.1,0-0.2,0-0.3,0
		c-0.1,0-0.3,0-0.4,0c-0.1,0-0.2,0-0.3,0c-0.1,0-0.3,0-0.4,0.1c-0.1,0-0.2,0-0.3,0.1c-0.1,0-0.3,0.1-0.4,0.1c-0.1,0-0.2,0.1-0.3,0.1
		c-0.1,0-0.2,0.1-0.3,0.1c-0.1,0.1-0.2,0.1-0.4,0.2c-0.1,0-0.1,0.1-0.2,0.1c0,0,0,0-0.1,0c-0.1,0.1-0.3,0.1-0.4,0.2
		c-0.1,0-0.1,0.1-0.2,0.1c-0.1,0.1-0.2,0.2-0.3,0.3c-0.1,0.1-0.2,0.1-0.2,0.2c-0.1,0.1-0.2,0.2-0.3,0.2c-0.1,0.1-0.2,0.1-0.2,0.2
		c-0.1,0.1-0.1,0.2-0.2,0.2c-0.1,0.1-0.2,0.2-0.3,0.3c-0.1,0.1-0.1,0.1-0.2,0.2c-0.1,0.1-0.2,0.2-0.3,0.4c0,0.1-0.1,0.1-0.1,0.2
		c-0.1,0.1-0.2,0.3-0.2,0.4c0,0,0,0,0,0.1L15.9,64.7c-0.6,1.1-0.8,2.2-0.8,3.4c0,0.7,0.1,1.4,0.3,2c0.4,1.3,1.2,2.5,2.3,3.4
		c0.4,0.3,0.8,0.6,1.2,0.8c1,0.5,2.1,0.8,3.2,0.8c2.6,0,5-1.4,6.3-3.8l14.9-28.7l1.6,3L52.8,30.1z"/>
	<polygon points="53.9,32.1 45.9,47.5 45.9,47.5 53.9,32.1 	"/>
	<polygon points="88.2,47.5 88.2,47.5 96.1,32.1 96.1,32.1 	"/>
	<path class="st0" d="M97.2,64.9l3.2,6.3c1.3,2.4,3.7,3.8,6.3,3.8c1.1,0,2.2-0.3,3.2-0.8c3.5-1.8,4.8-6.1,3-9.5l-7.8-15.1L97.2,64.9
		z"/>
	<polygon points="87.1,49.5 87.1,49.5 88.2,47.5 88.2,47.5 	"/>
	<polygon points="45.9,47.5 45.9,47.5 44.8,49.5 44.8,49.5 	"/>
	<path d="M54.9,64.9L54.9,64.9l3.2,6.3c0,0,0,0,0,0.1c0,0,0,0,0-0.1L54.9,64.9z"/>
	<path d="M15.4,70.1c-0.2-0.6-0.3-1.3-0.3-2C15.1,68.7,15.2,69.4,15.4,70.1z"/>
	<polygon points="43.3,42.4 44.8,45.4 44.8,45.4 	"/>
	<path d="M58.2,71.2c0,0.1,0.1,0.1,0.1,0.2c0.1,0.1,0.1,0.2,0.2,0.4c-0.1-0.1-0.1-0.2-0.2-0.4C58.3,71.4,58.2,71.3,58.2,71.2z"/>
	<rect x="45.9" y="47.5" width="0" height="0"/>
	<path d="M60,73.4c0.2,0.1,0.3,0.3,0.5,0.4c0,0,0.1,0,0.1,0.1c0,0-0.1,0-0.1-0.1C60.3,73.7,60.2,73.6,60,73.4z"/>
	<path d="M39.6,21.1c-0.1,0-0.1,0.1-0.2,0.1c-0.1,0.1-0.2,0.2-0.3,0.3c0.1-0.1,0.2-0.2,0.3-0.3C39.4,21.1,39.5,21.1,39.6,21.1z"/>
	<path d="M42.3,20.1c-0.1,0-0.3,0-0.4,0.1c-0.1,0-0.2,0-0.3,0.1c0.1,0,0.2,0,0.3-0.1C42,20.1,42.2,20.1,42.3,20.1z"/>
	<path d="M15.4,70.1c0.4,1.3,1.2,2.5,2.3,3.4C16.6,72.5,15.8,71.4,15.4,70.1z"/>
	<polygon points="67,47.5 67,47.5 75,32.1 75,32.1 	"/>
	<path class="st1" d="M134.1,64.7L113,23.8c0,0,0,0,0-0.1c-0.1-0.1-0.2-0.3-0.2-0.4c0-0.1-0.1-0.1-0.1-0.2c-0.1-0.1-0.2-0.2-0.3-0.4
		c-0.1-0.1-0.1-0.1-0.2-0.2c-0.1-0.1-0.2-0.2-0.3-0.3c-0.1-0.1-0.1-0.2-0.2-0.2c-0.1-0.1-0.2-0.1-0.2-0.2c-0.1-0.1-0.2-0.2-0.3-0.2
		c-0.1-0.1-0.1-0.1-0.2-0.2c-0.1-0.1-0.2-0.2-0.3-0.3c-0.1,0-0.1-0.1-0.2-0.1c-0.1-0.1-0.3-0.2-0.4-0.2c0,0,0,0-0.1,0
		c-0.1,0-0.1-0.1-0.2-0.1c-0.1-0.1-0.3-0.1-0.4-0.2c-0.1,0-0.2-0.1-0.3-0.1c-0.1,0-0.2-0.1-0.3-0.1c-0.1,0-0.2-0.1-0.3-0.1
		c-0.1,0-0.2-0.1-0.3-0.1c-0.1,0-0.2,0-0.4-0.1c-0.1,0-0.2,0-0.3,0c-0.1,0-0.2,0-0.3,0c-0.1,0-0.2,0-0.4,0c-0.1,0-0.2,0-0.3,0
		c-0.1,0-0.3,0-0.4,0c-0.1,0-0.2,0-0.3,0c-0.1,0-0.3,0-0.4,0.1c-0.1,0-0.2,0-0.3,0.1c-0.1,0-0.3,0.1-0.4,0.1c-0.1,0-0.2,0.1-0.3,0.1
		c-0.1,0-0.2,0.1-0.3,0.1c-0.1,0-0.2,0.1-0.4,0.2c-0.1,0-0.1,0.1-0.2,0.1c0,0,0,0-0.1,0c-0.1,0.1-0.3,0.1-0.4,0.2
		c-0.1,0-0.2,0.1-0.2,0.1c-0.1,0.1-0.2,0.2-0.3,0.2c-0.1,0.1-0.2,0.1-0.2,0.2c-0.1,0.1-0.2,0.2-0.3,0.2c-0.1,0.1-0.2,0.1-0.2,0.2
		c-0.1,0.1-0.1,0.2-0.2,0.2c-0.1,0.1-0.2,0.2-0.3,0.3c-0.1,0.1-0.1,0.1-0.2,0.2c-0.1,0.1-0.2,0.2-0.3,0.4c0,0.1-0.1,0.1-0.1,0.2
		c-0.1,0.1-0.2,0.3-0.2,0.4c0,0,0,0,0,0.1l-3.2,6.3l-1.1,2v0l-8,15.4l-1.1,2l-1.6,3l-1.6-3l-8,15.4l3.2,6.3c0,0,0,0,0,0.1
		c0,0.1,0.1,0.1,0.1,0.2c0.1,0.1,0.1,0.2,0.2,0.4c0,0.1,0.1,0.1,0.1,0.2c0.1,0.2,0.2,0.3,0.4,0.5c0,0,0,0,0.1,0.1
		c0.1,0.1,0.2,0.3,0.4,0.4c0,0,0.1,0.1,0.1,0.1c0.1,0.1,0.3,0.3,0.4,0.4c0,0,0,0,0,0c0.2,0.1,0.3,0.3,0.5,0.4c0,0,0.1,0,0.1,0.1
		c0.2,0.1,0.3,0.2,0.5,0.3c0,0,0,0,0,0c0,0,0,0,0,0c0.2,0.1,0.5,0.2,0.7,0.3c0,0,0.1,0,0.1,0c0.2,0.1,0.4,0.1,0.7,0.2
		c0.1,0,0.1,0,0.2,0c0.2,0.1,0.4,0.1,0.7,0.1c0.1,0,0.1,0,0.2,0c0.2,0,0.5,0,0.7,0c0,0,0,0,0,0c0,0,0,0,0,0c0,0,0,0,0,0c0,0,0,0,0,0
		c0.2,0,0.5,0,0.7,0c0.1,0,0.1,0,0.2,0c0.2,0,0.4-0.1,0.7-0.1c0.1,0,0.1,0,0.2,0c0.2-0.1,0.4-0.1,0.7-0.2c0,0,0.1,0,0.1,0
		c0.2-0.1,0.5-0.2,0.7-0.3c0,0,0,0,0,0c0,0,0,0,0,0c0.2-0.1,0.4-0.2,0.5-0.3c0,0,0.1,0,0.1-0.1c0.2-0.1,0.4-0.2,0.5-0.4c0,0,0,0,0,0
		c0.1-0.1,0.3-0.2,0.4-0.4c0,0,0.1-0.1,0.1-0.1c0.1-0.1,0.3-0.3,0.4-0.4c0,0,0,0,0-0.1c0.1-0.2,0.2-0.3,0.4-0.5
		c0-0.1,0.1-0.1,0.1-0.2c0.1-0.1,0.1-0.2,0.2-0.4c0-0.1,0.1-0.1,0.1-0.2c0,0,0,0,0-0.1l3.2-6.3l1.1-2l8-15.4l1.1-2l1.6-3l14.9,28.7
		c1.3,2.4,3.7,3.8,6.3,3.8c1.1,0,2.2-0.3,3.2-0.8C134.6,72.4,135.9,68.1,134.1,64.7z"/>
	<path class="st1" d="M70.7,23.8C70.7,23.8,70.7,23.8,70.7,23.8c-0.1-0.2-0.2-0.3-0.3-0.5c0-0.1-0.1-0.1-0.1-0.2
		c-0.1-0.1-0.2-0.2-0.3-0.4c-0.1-0.1-0.1-0.1-0.2-0.2c-0.1-0.1-0.2-0.2-0.3-0.3c-0.1-0.1-0.1-0.2-0.2-0.2c-0.1-0.1-0.2-0.1-0.2-0.2
		c-0.1-0.1-0.2-0.2-0.3-0.3c-0.1-0.1-0.1-0.1-0.2-0.2c-0.1-0.1-0.2-0.2-0.4-0.3c-0.1,0-0.1-0.1-0.2-0.1c-0.1-0.1-0.3-0.2-0.4-0.2
		c0,0,0,0-0.1,0c-0.1,0-0.1-0.1-0.2-0.1c-0.1-0.1-0.3-0.1-0.4-0.2c-0.1,0-0.2-0.1-0.3-0.1c-0.1,0-0.2-0.1-0.3-0.1
		c-0.1,0-0.2-0.1-0.3-0.1c-0.1,0-0.2-0.1-0.3-0.1c-0.1,0-0.2,0-0.4-0.1c-0.1,0-0.2,0-0.3,0c-0.1,0-0.2,0-0.3,0c-0.1,0-0.2,0-0.4,0
		c-0.1,0-0.2,0-0.3,0c-0.1,0-0.3,0-0.4,0c-0.1,0-0.2,0-0.3,0c-0.1,0-0.3,0-0.4,0.1c-0.1,0-0.2,0-0.3,0.1c-0.1,0-0.3,0.1-0.4,0.1
		c-0.1,0-0.2,0.1-0.3,0.1c-0.1,0-0.2,0.1-0.3,0.1c-0.1,0.1-0.2,0.1-0.4,0.2c-0.1,0-0.1,0.1-0.2,0.1c0,0,0,0-0.1,0
		c-0.1,0.1-0.3,0.1-0.4,0.2c-0.1,0-0.1,0.1-0.2,0.1c-0.1,0.1-0.2,0.2-0.3,0.3c-0.1,0.1-0.2,0.1-0.2,0.2c-0.1,0.1-0.2,0.2-0.3,0.2
		c-0.1,0.1-0.2,0.1-0.2,0.2c-0.1,0.1-0.1,0.2-0.2,0.2c-0.1,0.1-0.2,0.2-0.3,0.3c-0.1,0.1-0.1,0.1-0.2,0.2c-0.1,0.1-0.2,0.2-0.3,0.4
		c0,0.1-0.1,0.1-0.1,0.2c-0.1,0.1-0.2,0.3-0.2,0.4c0,0,0,0,0,0.1l-3.2,6.3l-1.1,2v0l-8,15.4l-1.1,2L37,64.7
		c-0.6,1.1-0.8,2.2-0.8,3.4c0,0.7,0.1,1.4,0.3,2c0.4,1.3,1.2,2.5,2.3,3.4c0.4,0.3,0.8,0.6,1.2,0.8c1,0.5,2.1,0.8,3.2,0.8
		c2.6,0,5-1.4,6.3-3.8l3.2-6.3l1.1-2l8-15.4l1.1-2l1.6-3l1.6,3l8-15.4L70.7,23.8z"/>
	<polygon points="66,49.5 66,49.5 67,47.5 67,47.5 	"/>
	<polygon points="76.1,30.1 76.1,30.1 75,32.1 75,32.1 	"/>
	<path class="st0" d="M91.8,23.8C91.8,23.8,91.8,23.8,91.8,23.8c-0.1-0.2-0.2-0.3-0.3-0.5c0-0.1-0.1-0.1-0.1-0.2
		c-0.1-0.1-0.2-0.2-0.3-0.4c-0.1-0.1-0.1-0.1-0.2-0.2c-0.1-0.1-0.2-0.2-0.3-0.3c-0.1-0.1-0.1-0.2-0.2-0.2c-0.1-0.1-0.2-0.1-0.2-0.2
		c-0.1-0.1-0.2-0.2-0.3-0.2c-0.1-0.1-0.1-0.1-0.2-0.2c-0.1-0.1-0.2-0.2-0.3-0.3c-0.1,0-0.1-0.1-0.2-0.1c-0.1-0.1-0.3-0.2-0.4-0.2
		c0,0,0,0-0.1,0c-0.1,0-0.1-0.1-0.2-0.1c-0.1-0.1-0.3-0.1-0.4-0.2c-0.1,0-0.2-0.1-0.3-0.1c-0.1,0-0.2-0.1-0.3-0.1
		c-0.1,0-0.2-0.1-0.3-0.1c-0.1,0-0.2-0.1-0.3-0.1c-0.1,0-0.2,0-0.4-0.1c-0.1,0-0.2,0-0.3,0c-0.1,0-0.2,0-0.3,0c-0.1,0-0.2,0-0.4,0
		c-0.1,0-0.2,0-0.3,0c-0.1,0-0.3,0-0.4,0c-0.1,0-0.2,0-0.3,0c-0.1,0-0.3,0-0.4,0.1c-0.1,0-0.2,0-0.3,0.1c-0.1,0-0.3,0.1-0.4,0.1
		c-0.1,0-0.2,0.1-0.3,0.1c-0.1,0-0.2,0.1-0.3,0.1c-0.1,0.1-0.2,0.1-0.4,0.2c-0.1,0-0.1,0.1-0.2,0.1c0,0,0,0-0.1,0
		c-0.1,0.1-0.3,0.1-0.4,0.2c-0.1,0-0.1,0.1-0.2,0.1c-0.1,0.1-0.2,0.2-0.3,0.3c-0.1,0.1-0.2,0.1-0.2,0.2c-0.1,0.1-0.2,0.2-0.3,0.2
		c-0.1,0.1-0.2,0.1-0.2,0.2c-0.1,0.1-0.1,0.2-0.2,0.2c-0.1,0.1-0.2,0.2-0.3,0.3c-0.1,0.1-0.1,0.1-0.2,0.2c-0.1,0.1-0.2,0.2-0.3,0.4
		c0,0.1-0.1,0.1-0.1,0.2c-0.1,0.1-0.2,0.3-0.2,0.4c0,0,0,0,0,0.1l-3.2,6.3l-1.1,2v0l-8,15.4l-1.1,2l-1.6,3l-1.6-3l-8,15.4l3.2,6.3
		c0,0,0,0,0,0.1c0,0.1,0.1,0.1,0.1,0.2c0.1,0.1,0.1,0.2,0.2,0.4c0,0.1,0.1,0.1,0.1,0.2c0.1,0.2,0.2,0.3,0.4,0.5c0,0,0,0,0.1,0.1
		c0.1,0.1,0.2,0.3,0.4,0.4c0,0,0.1,0.1,0.1,0.1c0.1,0.1,0.3,0.3,0.4,0.4c0,0,0,0,0,0c0.2,0.1,0.3,0.3,0.5,0.4c0,0,0.1,0,0.1,0.1
		c0.2,0.1,0.3,0.2,0.5,0.3c0,0,0,0,0,0c0,0,0,0,0,0c0.2,0.1,0.5,0.2,0.7,0.3c0,0,0.1,0,0.1,0c0.2,0.1,0.4,0.1,0.7,0.2
		c0.1,0,0.1,0,0.2,0c0.2,0.1,0.4,0.1,0.7,0.1c0.1,0,0.1,0,0.2,0c0.2,0,0.5,0,0.7,0c0,0,0,0,0,0c0,0,0,0,0,0c0,0,0,0,0,0c0,0,0,0,0,0
		c0.2,0,0.5,0,0.7,0c0.1,0,0.1,0,0.2,0c0.2,0,0.4-0.1,0.7-0.1c0.1,0,0.1,0,0.2,0c0.2-0.1,0.4-0.1,0.7-0.2c0,0,0.1,0,0.1,0
		c0.2-0.1,0.5-0.2,0.7-0.3c0,0,0,0,0,0c0,0,0,0,0,0c0.2-0.1,0.4-0.2,0.5-0.3c0,0,0.1,0,0.1-0.1c0.2-0.1,0.4-0.2,0.5-0.4c0,0,0,0,0,0
		c0.1-0.1,0.3-0.2,0.4-0.4c0,0,0.1-0.1,0.1-0.1c0.1-0.1,0.3-0.3,0.4-0.4c0,0,0,0,0-0.1c0.1-0.2,0.2-0.3,0.4-0.5
		c0-0.1,0.1-0.1,0.1-0.2c0.1-0.1,0.1-0.2,0.2-0.4c0-0.1,0.1-0.1,0.1-0.2c0,0,0,0,0-0.1l3.2-6.3l1.1-2l8-15.4l1.1-2l1.6-3l1.6,3
		l8-15.4L91.8,23.8z"/>
	<polygon points="53.9,62.9 53.9,62.9 54.9,64.9 54.9,64.9 	"/>
	<path d="M36.6,70.1c0.4,1.3,1.2,2.5,2.3,3.4C37.7,72.5,37,71.4,36.6,70.1z"/>
	<path d="M60.7,21.1c-0.1,0-0.1,0.1-0.2,0.1c-0.1,0.1-0.2,0.2-0.3,0.3c0.1-0.1,0.2-0.2,0.3-0.3C60.6,21.1,60.7,21.1,60.7,21.1z"/>
	<path d="M36.6,70.1c-0.2-0.6-0.3-1.3-0.3-2C36.2,68.7,36.3,69.4,36.6,70.1z"/>
	<path d="M63.5,20.1c-0.1,0-0.3,0-0.4,0.1c-0.1,0-0.2,0-0.3,0.1c0.1,0,0.2,0,0.3-0.1C63.2,20.1,63.3,20.1,63.5,20.1z"/>
</g>
</svg>
