<?xml version="1.0" encoding="utf-8"?>
<!-- Generator: Adobe Illustrator 22.0.1, SVG Export Plug-In . SVG Version: 6.00 Build 0)  -->
<svg version="1.1" xmlns="http://www.w3.org/2000/svg" xmlns:xlink="http://www.w3.org/1999/xlink" x="0px" y="0px"
	 viewBox="0 0 2968 964" style="enable-background:new 0 0 2968 964;" xml:space="preserve">
<style type="text/css">
	.st0{fill:#FFFFFF;}
</style>
<g id="Layer_2">
</g>
<g id="Fearless_Concept_copy">
	<g>
		<path class="st0" d="M259.3,252.3H510l-16.1,89.9H343L326.4,432h124.5l-16.1,89.9H309.8l-29.8,158.7h-99.8L259.3,252.3z"/>
		<path class="st0" d="M575.9,252.3h256.4l-16.6,89.9H659.1L644.8,420h124.5L752,509.9H627.6l-14.9,80.9h164.6l-16.6,89.9h-265
			L575.9,252.3z"/>
		<path class="st0" d="M998.7,252.3H1114l56.8,428.3h-100.4l-8.6-89.9H933.9l-41.3,89.9H785.3L998.7,252.3z M1053.8,506.9l-8-83.3
			c-0.8-6.8-1.3-14.4-1.7-22.8c-0.4-8.4-0.8-16.4-1.1-24c-0.4-8.8-0.6-17.8-0.6-27h-1.1c-3.1,9.2-6.3,18.2-9.8,27
			c-3.1,7.6-6.3,15.6-9.8,24c-3.4,8.4-6.7,16-9.8,22.8l-39,83.3H1053.8z"/>
		<path class="st0" d="M1296.4,252.3H1449c11.1,0,21.7,0.8,31.8,2.4c10.1,1.6,19.6,4.2,28.4,7.8c19.5,8,34.6,20.4,45.3,37.1
			c10.7,16.8,16.1,37.1,16.1,61.1c0,12.8-1.5,26.3-4.6,40.4c-3.1,14.2-7.9,28-14.6,41.3c-6.7,13.4-15.5,25.7-26.4,36.8
			c-10.9,11.2-24.2,20-39.9,26.4v1.2c0.8,1.6,1.7,3.6,2.9,6c0.8,2,1.7,4.7,2.9,8.1c1.1,3.4,2.7,7.3,4.6,11.7l52.8,148h-107.8
			l-45.9-144.4H1344l-27,144.4h-100.4L1296.4,252.3z M1403.7,446.4c18,0,33.1-5.6,45.3-16.8c12.2-11.2,18.4-27.6,18.4-49.1
			c0-12.8-3.7-22.4-11.2-28.8c-7.5-6.4-17.7-9.6-30.7-9.6h-45.3l-19.5,104.2H1403.7z"/>
		<path class="st0" d="M1686.5,252.3h100.4l-63.1,338.5h167.5l-17.2,89.9h-267.3L1686.5,252.3z"/>
		<path class="st0" d="M2007.7,252.3h256.4l-16.6,89.9h-156.6l-14.3,77.9H2201l-17.2,89.9h-124.5l-14.9,80.9h164.6l-16.6,89.9h-265
			L2007.7,252.3z"/>
		<path class="st0" d="M2306,552.4c7.6,7.6,16.4,14.2,26.4,19.8c8.4,4.8,18.5,9.2,30.4,13.2c11.8,4,25.2,6,40.2,6
			c5,0,10.3-0.6,16.1-1.8c5.7-1.2,11.1-3.3,16.1-6.3c5-3,9.1-6.9,12.3-11.7c3.2-4.8,4.9-10.8,4.9-18c0-7.6-3.8-14.4-11.5-20.4
			c-7.7-6-17.1-12.2-28.4-18.6c-11.3-6.4-23.5-13.4-36.7-21c-13.2-7.6-25.4-16.6-36.7-27c-11.3-10.4-20.8-22.7-28.4-36.8
			c-7.7-14.2-11.5-31.2-11.5-51.2c0-21.2,4.4-40,13.2-56.6c8.8-16.6,20.4-30.6,34.7-41.9c14.3-11.4,30.6-20.1,48.8-26.1
			c18.2-6,36.8-9,55.9-9c24.1,0,44.9,2.6,62.5,7.8c17.6,5.2,32.1,11,43.6,17.4c13.4,7.2,24.7,15.4,33.8,24.6l-53.9,77.3
			c-7.3-5.6-15.5-10.6-24.7-15c-7.7-4-16.8-7.6-27.5-10.8c-10.7-3.2-22.6-4.8-35.6-4.8c-5,0-10.4,0.7-16.3,2.1
			c-5.9,1.4-11.4,3.6-16.3,6.6c-5,3-9.2,6.9-12.6,11.7c-3.4,4.8-5.2,10.4-5.2,16.8c0,8,3.8,15,11.5,21c7.6,6,17.2,12.2,28.7,18.6
			c11.5,6.4,23.8,13.3,37,20.7c13.2,7.4,25.5,16.2,37,26.4s21,22.5,28.7,36.8c7.6,14.4,11.5,31.6,11.5,51.5
			c0,18.4-3.8,35.7-11.5,52.1c-7.7,16.4-18.3,30.7-31.8,42.8c-13.6,12.2-29.6,21.8-48.2,28.8c-18.6,7-38.9,10.5-61.1,10.5
			c-26.4,0-49.2-3.1-68.6-9.3c-19.3-6.2-35.5-13.3-48.5-21.3c-15.3-8.8-27.9-19-37.9-30.6L2306,552.4z"/>
		<path class="st0" d="M2639.9,552.4c7.6,7.6,16.4,14.2,26.4,19.8c8.4,4.8,18.5,9.2,30.4,13.2c11.8,4,25.2,6,40.2,6
			c5,0,10.3-0.6,16.1-1.8c5.7-1.2,11.1-3.3,16.1-6.3c5-3,9.1-6.9,12.3-11.7c3.2-4.8,4.9-10.8,4.9-18c0-7.6-3.8-14.4-11.5-20.4
			c-7.7-6-17.1-12.2-28.4-18.6c-11.3-6.4-23.5-13.4-36.7-21c-13.2-7.6-25.4-16.6-36.7-27c-11.3-10.4-20.8-22.7-28.4-36.8
			c-7.7-14.2-11.5-31.2-11.5-51.2c0-21.2,4.4-40,13.2-56.6c8.8-16.6,20.4-30.6,34.7-41.9c14.3-11.4,30.6-20.1,48.8-26.1
			c18.2-6,36.8-9,55.9-9c24.1,0,44.9,2.6,62.5,7.8c17.6,5.2,32.1,11,43.6,17.4c13.4,7.2,24.7,15.4,33.8,24.6l-53.9,77.3
			c-7.3-5.6-15.5-10.6-24.7-15c-7.7-4-16.8-7.6-27.5-10.8c-10.7-3.2-22.6-4.8-35.6-4.8c-5,0-10.4,0.7-16.3,2.1
			c-5.9,1.4-11.4,3.6-16.3,6.6c-5,3-9.2,6.9-12.6,11.7c-3.4,4.8-5.2,10.4-5.2,16.8c0,8,3.8,15,11.5,21c7.6,6,17.2,12.2,28.7,18.6
			c11.5,6.4,23.8,13.3,37,20.7c13.2,7.4,25.5,16.2,37,26.4s21,22.5,28.7,36.8c7.6,14.4,11.5,31.6,11.5,51.5
			c0,18.4-3.8,35.7-11.5,52.1c-7.7,16.4-18.3,30.7-31.8,42.8c-13.6,12.2-29.6,21.8-48.2,28.8c-18.6,7-38.9,10.5-61.1,10.5
			c-26.4,0-49.2-3.1-68.6-9.3c-19.3-6.2-35.5-13.3-48.5-21.3c-15.3-8.8-27.9-19-37.9-30.6L2639.9,552.4z"/>
	</g>
	<g>
		<path class="st0" d="M309,74.9h-50.2l6.7-36.4h141.1l-6.7,36.4h-50.2L324.1,212h-40.7L309,74.9z"/>
		<path class="st0" d="M427.5,38.5h40.7l-13,69.2h60.4l13-69.2h40.7L536.9,212h-40.7l12.5-67.9h-60.4L435.9,212h-40.7L427.5,38.5z"
			/>
		<path class="st0" d="M608.5,38.5h103.9l-6.7,36.4h-63.4l-5.8,31.5h50.4l-7,36.4h-50.4l-6,32.8h66.7l-6.7,36.4H576L608.5,38.5z"/>
	</g>
	<g>
		<path class="st0" d="M1680.6,741.4h44.4l10.9,73.3c0.3,2.8,0.7,5.8,1,9.1c0.4,3.3,0.7,6.4,1,9.3c0.3,3.4,0.5,6.8,0.7,10.2h0.5
			c1.5-3.2,3.2-6.6,4.9-9.9c1.4-2.9,2.9-6,4.4-9.3c1.5-3.3,3.1-6.4,4.6-9.3l37.9-73.3h44.6l-18.8,173.5h-40l9.5-78.1
			c0.3-3.2,0.8-6.6,1.4-10.1c0.6-3.5,1.2-6.6,1.9-9.3c0.6-3.2,1.3-6.5,2.1-9.7h-0.5c-1.7,3.7-3.4,7.3-5.1,10.7
			c-1.6,3.1-3.2,6.2-4.9,9.5c-1.7,3.2-3.3,6.2-4.6,9l-27,50.2h-35.3l-8.4-50.2c-0.5-2.7-0.9-5.8-1.4-9.2c-0.5-3.4-0.9-6.6-1.2-9.7
			c-0.5-3.6-0.8-7.1-0.9-10.7h-0.5c-0.3,3.2-0.8,6.6-1.4,9.9c-0.5,2.9-1,6.1-1.7,9.6c-0.7,3.5-1.4,6.8-2.2,10.1l-19.5,78.1h-40.9
			L1680.6,741.4z"/>
		<path class="st0" d="M1917.8,741.4h46.7l23,173.5h-40.7l-3.5-36.4h-51.8l-16.7,36.4h-43.4L1917.8,741.4z M1940.1,844.5l-3.3-33.7
			c-0.3-2.7-0.5-5.8-0.7-9.2c-0.2-3.4-0.3-6.6-0.5-9.7c-0.2-3.6-0.2-7.2-0.2-10.9h-0.5c-1.2,3.7-2.6,7.4-3.9,10.9
			c-1.2,3.1-2.6,6.3-4,9.7c-1.4,3.4-2.7,6.5-4,9.2l-15.8,33.7H1940.1z"/>
		<path class="st0" d="M2038.4,741.4h61.8c4.5,0,8.8,0.3,12.9,1c4.1,0.6,7.9,1.7,11.5,3.2c7.9,3.2,14,8.2,18.4,15
			c4.3,6.8,6.5,15,6.5,24.7c0,5.2-0.6,10.6-1.9,16.4c-1.2,5.7-3.2,11.3-5.9,16.7c-2.7,5.4-6.3,10.4-10.7,14.9
			c-4.4,4.5-9.8,8.1-16.1,10.7v0.5c0.3,0.6,0.7,1.5,1.2,2.4c0.3,0.8,0.7,1.9,1.2,3.3c0.5,1.4,1.1,3,1.9,4.7l21.4,59.9h-43.7
			l-18.6-58.5h-20.4l-10.9,58.5h-40.7L2038.4,741.4z M2081.9,820c7.3,0,13.4-2.3,18.4-6.8c5-4.5,7.4-11.2,7.4-19.9
			c0-5.2-1.5-9.1-4.5-11.6c-3-2.6-7.2-3.9-12.4-3.9h-18.4l-7.9,42.2H2081.9z"/>
		<path class="st0" d="M2196.4,741.4h40.7l-12.5,66.7h15.6l47.6-66.7h47.2l-63,85.2v0.5l30.2,87.8h-43.2l-22.1-70.4h-19.1l-13,70.4
			h-40.7L2196.4,741.4z"/>
		<path class="st0" d="M2358.6,741.4h103.9l-6.7,36.4h-63.4l-5.8,31.5h50.4l-7,36.4h-50.4l-6,32.8h66.7l-6.7,36.4h-107.3
			L2358.6,741.4z"/>
		<path class="st0" d="M2519.6,777.8h-50.2l6.7-36.4h141l-6.7,36.4h-50.2l-25.6,137.1H2494L2519.6,777.8z"/>
		<path class="st0" d="M2638.3,741.4h103.9l-6.7,36.4H2672l-5.8,31.5h50.4l-7,36.4h-50.4l-6,32.8h66.7l-6.7,36.4h-107.3
			L2638.3,741.4z"/>
		<path class="st0" d="M2774.7,741.4h61.8c4.5,0,8.8,0.3,12.9,1c4.1,0.6,7.9,1.7,11.5,3.2c7.9,3.2,14,8.2,18.4,15
			c4.3,6.8,6.5,15,6.5,24.7c0,5.2-0.6,10.6-1.9,16.4c-1.2,5.7-3.2,11.3-5.9,16.7c-2.7,5.4-6.3,10.4-10.7,14.9
			c-4.4,4.5-9.8,8.1-16.1,10.7v0.5c0.3,0.6,0.7,1.5,1.2,2.4c0.3,0.8,0.7,1.9,1.2,3.3c0.5,1.4,1.1,3,1.9,4.7l21.4,59.9H2833
			l-18.6-58.5H2794l-10.9,58.5h-40.7L2774.7,741.4z M2818.2,820c7.3,0,13.4-2.3,18.4-6.8c5-4.5,7.4-11.2,7.4-19.9
			c0-5.2-1.5-9.1-4.5-11.6c-3-2.6-7.2-3.9-12.4-3.9h-18.4l-7.9,42.2H2818.2z"/>
	</g>
</g>
</svg>
